<svg width="79" height="22" viewBox="0 0 79 22" fill="none" xmlns="http://www.w3.org/2000/svg">
<g clip-path="url(#clip0)">
<path d="M0 21.6016V0H4.64535V17.8189H13.5356V21.6016H0Z" fill="#F8F8F8"/>
<path d="M30.5806 13.3148C30.5806 16.0041 29.861 18.1072 28.4218 19.6242C26.9826 21.141 24.9802 21.8971 22.4149 21.8923C20.9274 21.9231 19.4584 21.5626 18.159 20.848C16.9305 20.1561 15.9431 19.1139 15.3267 17.8584C14.64 16.4413 14.3009 14.8849 14.3365 13.3148C14.3365 10.616 15.0512 8.51765 16.4808 7.01988C17.9103 5.52211 19.9187 4.77325 22.5059 4.77325C23.992 4.74327 25.4598 5.09976 26.7617 5.80688C27.9886 6.49269 28.9761 7.52867 29.5941 8.77848C30.2805 10.193 30.6185 11.7473 30.5806 13.3148ZM18.9927 13.3148C18.9927 14.9466 19.2658 16.1824 19.8119 17.0222C20.358 17.862 21.2451 18.2807 22.4732 18.2783C23.6866 18.2783 24.5628 17.862 25.1016 17.0293C25.6404 16.1967 25.9074 14.9586 25.9025 13.3148C25.9025 11.6783 25.6332 10.4509 25.0943 9.63262C24.5555 8.81433 23.6708 8.40642 22.4404 8.40883C21.2269 8.40883 20.3483 8.81433 19.8046 9.62543C19.261 10.4365 18.9915 11.6663 18.9964 13.3148H18.9927Z" fill="#F8F8F8"/>
<path d="M39.5401 21.8923C34.3244 21.8923 31.7165 19.0727 31.7165 13.4333C31.7165 10.6243 32.4252 8.47821 33.8426 6.99477C35.26 5.51138 37.2938 4.77085 39.9442 4.77324C41.748 4.74353 43.5341 5.12812 45.1611 5.89659L43.8104 9.38139C43.0823 9.09909 42.4124 8.86579 41.8009 8.68158C41.1988 8.50161 40.5733 8.40969 39.9442 8.40883C37.5657 8.40883 36.3764 10.0729 36.3764 13.401C36.3764 16.6358 37.5657 18.252 39.9442 18.2496C40.7721 18.2522 41.5957 18.1312 42.387 17.8907C43.1857 17.6407 43.9435 17.278 44.6369 16.814V20.6721C43.9479 21.1118 43.1902 21.4367 42.3942 21.6339C41.4558 21.8261 40.4983 21.9128 39.5401 21.8923Z" fill="#F8F8F8"/>
<path d="M57.5207 21.6016L56.6359 19.3586H56.5161C55.8928 20.1939 55.0799 20.8737 54.1423 21.3432C53.1355 21.7458 52.0534 21.933 50.9677 21.8923C49.3586 21.8923 48.0917 21.4389 47.167 20.5321C46.2423 19.6253 45.78 18.3345 45.78 16.6597C45.78 14.9083 46.4025 13.6151 47.6476 12.7801C48.8926 11.9451 50.7687 11.4845 53.2759 11.3984L56.1881 11.3122V10.5945C56.1881 8.91961 55.318 8.08221 53.578 8.08221C52.2383 8.08221 50.6607 8.48175 48.8453 9.28089L47.3272 6.23394C49.3095 5.22741 51.5122 4.71598 53.7418 4.74453C55.9892 4.74453 57.7125 5.22305 58.9117 6.18007C60.1103 7.13712 60.7096 8.60501 60.7096 10.5837V21.6016H57.5207ZM56.1739 13.9501L54.4044 14.0075C53.0768 14.0458 52.0878 14.285 51.4374 14.7253C51.1146 14.9431 50.855 15.2399 50.6839 15.5867C50.5129 15.9334 50.4363 16.318 50.4617 16.7028C50.4617 17.9733 51.1898 18.6121 52.6788 18.6121C53.1432 18.6355 53.6077 18.5675 54.0452 18.4123C54.4827 18.257 54.8843 18.0175 55.227 17.7076C55.5479 17.3972 55.7985 17.0235 55.9631 16.6111C56.1276 16.1986 56.2017 15.7566 56.181 15.3139L56.1739 13.9501Z" fill="#F8F8F8"/>
<path d="M73.1753 4.77325C73.6928 4.76326 74.2104 4.80777 74.7187 4.90604L74.3766 9.13016C73.9347 9.02451 73.4804 8.97503 73.026 8.98303C71.5696 8.98303 70.4326 9.35268 69.6148 10.092C68.797 10.8313 68.39 11.8661 68.3949 13.1964V21.6016H63.8042V5.09266H67.2666L67.94 7.87047H68.1656C68.6635 6.96075 69.3843 6.18838 70.2626 5.62384C71.1256 5.06018 72.1401 4.76396 73.1753 4.77325Z" fill="#F8F8F8"/>
<path d="M73.7538 19.4914C73.7288 19.1496 73.7756 18.8065 73.8917 18.4834C74.0077 18.1604 74.1897 17.8645 74.4273 17.6144C74.9737 17.158 75.6793 16.93 76.3935 16.9791C76.7417 16.9573 77.0915 17.0035 77.4216 17.115C77.7523 17.2264 78.0574 17.401 78.319 17.6287C78.5565 17.8762 78.7396 18.1694 78.8567 18.4899C78.9738 18.8105 79.0229 19.1514 79 19.4914C79.0185 19.8277 78.9668 20.1642 78.8485 20.4801C78.7303 20.7961 78.5478 21.085 78.3119 21.3289C78.0542 21.5616 77.7512 21.7409 77.4216 21.8561C77.092 21.9714 76.7422 22.0203 76.3935 22C75.6804 22.0444 74.9786 21.8082 74.442 21.3432C74.2039 21.0981 74.0197 20.807 73.9015 20.4883C73.7827 20.1696 73.7326 19.8302 73.7538 19.4914Z" fill="#E8625A"/>
</g>
<defs>
<clipPath id="clip0">
<rect width="79" height="22" fill="white"/>
</clipPath>
</defs>
</svg>
